<?xml version="1.0" standalone="no"?>
<!DOCTYPE svg PUBLIC "-//W3C//DTD SVG 20010904//EN"
 "http://www.w3.org/TR/2001/REC-SVG-20010904/DTD/svg10.dtd">
<svg version="1.0" xmlns="http://www.w3.org/2000/svg"
 width="512.000000pt" height="512.000000pt" viewBox="0 0 512.000000 512.000000"
 preserveAspectRatio="xMidYMid meet">
<metadata>
Created by potrace 1.14, written by Peter Selinger 2001-2017
</metadata>
<g transform="translate(0.000000,512.000000) scale(0.100000,-0.100000)"
fill="#000000" stroke="none">
<path d="M4675 3795 c-432 -151 -810 -474 -924 -791 -30 -82 -59 -229 -48
-240 5 -5 1111 21 1287 31 52 2 101 5 108 5 34 0 -2 260 -68 485 -61 208 -206
536 -240 542 -8 2 -60 -13 -115 -32z"/>
<path d="M236 3668 c-147 -316 -225 -618 -226 -870 l0 -138 58 0 c31 0 278 7
547 15 270 8 538 15 597 15 l107 0 6 -47 c21 -157 52 -248 126 -363 54 -85
174 -206 264 -267 396 -267 999 -317 1432 -118 114 52 212 121 298 209 151
154 227 329 250 575 l7 74 -278 -7 c-299 -7 -852 -22 -1154 -31 -704 -20 -942
-26 -945 -23 -2 2 -8 52 -14 111 -42 385 -222 675 -524 837 -132 72 -317 120
-460 120 l-48 0 -43 -92z"/>
</g>
</svg>
