<svg version="1" xmlns="http://www.w3.org/2000/svg" width="682.667" height="682.667" viewBox="0 0 512.000000 512.000000"><path d="M474.5 130c-7.9 2.3-23.5 8.5-31 12.3-5.8 3-25.5 15.3-26.5 16.6-.3.3-2.7 2.4-5.5 4.6-23.1 18.4-38.6 43.4-41.1 66.4-.3 3.1-.8 5.8-1 6-.5.5-4.7.7-38.4 1.5-13.5.4-30.8.9-38.5 1.1-7.7.2-25 .7-38.5 1-13.5.4-29.9.8-36.5 1-6.6.2-23 .6-36.5 1-13.5.3-30 .8-36.7 1l-12.3.4-.2-4.2c-.4-12.5-2.1-22.4-5.9-33.7-11.3-34.5-38.4-59.3-73.4-67-2.7-.7-9.6-1.4-15.1-1.7l-10.1-.5-4 8.3c-9.7 20.3-16.5 41-20.8 63.3C.4 218.1 0 222.9.2 233.5l.3 13 3-.1c1.7-.1 15.8-.5 31.5-.9s32.8-.9 38-1c60.6-1.8 59-1.8 59.1.2.6 22.8 13.8 47.2 33.4 61.8 2.2 1.6 4.2 3.2 4.5 3.6 1 1.1 12.7 7.8 18 10.3 14 6.5 28.5 10.6 45.5 13.1 9.9 1.4 34.3 1.7 40.8.4 2.3-.4 6.2-1 8.7-1.4 10.6-1.5 28.5-7.6 39-13.3 29.5-16.1 47.4-45.5 47.9-78.9l.1-4.1 8.3-.1c4.5-.1 15.2-.4 23.7-.6 8.5-.2 23.8-.7 34-1 23-.6 67.2-1.8 72.3-1.9h3.7V226c0-14.2-8.1-45.9-17.7-69.5-3.3-8.2-12.4-26.8-13.7-28.1 0-.1-2.8.6-6.1 1.6z"/></svg>